<svg xmlns="http://www.w3.org/2000/svg" viewBox="0 0 1024 1024" role="img" aria-label="BBox Labeler app mark">
  <defs>
    <linearGradient id="bg" x1="140" y1="94" x2="884" y2="922" gradientUnits="userSpaceOnUse">
      <stop offset="0" stop-color="#FFBC12"/>
      <stop offset="0.55" stop-color="#F59300"/>
      <stop offset="1" stop-color="#E26C00"/>
    </linearGradient>
    <linearGradient id="bface" x1="330" y1="212" x2="704" y2="762" gradientUnits="userSpaceOnUse">
      <stop offset="0" stop-color="#F24718"/>
      <stop offset="0.58" stop-color="#D71E12"/>
      <stop offset="1" stop-color="#9E1412"/>
    </linearGradient>
    <filter id="shadow" x="-20%" y="-20%" width="150%" height="150%">
      <feDropShadow dx="42" dy="46" stdDeviation="34" flood-color="#7A2100" flood-opacity="0.45"/>
    </filter>
  </defs>
  <rect width="1024" height="1024" rx="188" fill="url(#bg)"/>
  <path d="M296 204h250c116 0 190 59 190 153 0 57-30 107-86 132 75 23 118 79 118 160 0 109-83 171-222 171H296V204Z" fill="#8C120D" opacity="0.48" filter="url(#shadow)"/>
  <path d="M284 188h254c116 0 190 59 190 153 0 57-30 107-86 132 75 23 118 79 118 160 0 109-83 171-222 171H284V188Z" fill="url(#bface)"/>
  <path d="M412 315v123h96c52 0 82-23 82-63 0-38-30-60-82-60h-96Zm0 242v127h112c57 0 90-24 90-65 0-40-33-62-90-62H412Z" fill="#FF9D1F"/>
  <path d="M284 188h254c116 0 190 59 190 153 0 57-30 107-86 132 75 23 118 79 118 160 0 109-83 171-222 171H284V188Z" fill="none" stroke="#B0150E" stroke-width="22" stroke-linejoin="round"/>
  <path d="M238 168h116M238 168v116M786 168H670M786 168v116M238 856h116M238 856V740M786 856H670M786 856V740" fill="none" stroke="#A9120D" stroke-width="34" stroke-linecap="round"/>
  <circle cx="786" cy="724" r="42" fill="#FFE08A" stroke="#A9120D" stroke-width="18"/>
</svg>
